<svg id="Layer_1" xmlns="http://www.w3.org/2000/svg" viewBox="0 0 1391.95 701.22"><defs><style>.cls-1,.cls-2{fill:none;}.cls-1{stroke:#000;stroke-miterlimit:10;}</style></defs><polygon class="cls-1" points="464.54 11.18 108.5 215.31 37.29 262.79 20.68 284.15 6.43 310.26 0.5 336.37 0.5 350.61 0.5 370.79 11.18 400.46 27.8 427.75 50.35 449.12 122.74 493.03 232.52 557.12 337.56 621.2 412.32 662.74 444.37 686.48 464.54 694.79 490.65 700.72 512.02 700.72 542.87 692.41 568.98 676.98 590.35 656.81 605.77 627.14 615.27 590.35 615.27 566.61 604.59 534.57 589.16 509.64 566.61 489.47 371.97 368.41 347.05 355.95 350.61 345.98 413.51 305.51 545.25 227.18 577.29 203.44 603.4 171.4 615.27 134.61 615.27 101.38 601.03 59.84 572.54 26.61 546.43 11.18 517.95 0.5 491.84 0.5 464.54 11.18"/><polygon class="cls-1" points="927.4 11.18 1283.44 215.31 1354.65 262.79 1371.27 284.15 1385.51 310.26 1391.44 336.37 1391.44 350.61 1391.44 370.79 1380.76 400.46 1364.15 427.75 1341.6 449.12 1269.2 493.03 1159.42 557.12 1054.39 621.2 979.62 662.74 947.58 686.48 927.4 694.79 901.29 700.72 879.93 700.72 849.07 692.41 822.96 676.98 801.6 656.81 786.17 627.14 776.68 590.35 776.68 566.61 787.36 534.57 802.79 509.64 825.34 489.47 1019.97 368.41 1044.9 355.95 1041.34 345.98 978.43 305.51 846.7 227.18 814.65 203.44 788.54 171.4 776.68 134.61 776.68 101.38 790.92 59.84 819.4 26.61 845.51 11.18 874 0.5 900.1 0.5 927.4 11.18"/><polyline class="cls-1" points="75.91 237.04 110.48 237.04 146.87 244.59 181.69 260.41 347.05 355.95"/><polyline class="cls-1" points="1041.34 345.98 1118.48 390.17 1207.09 442.39 1238.74 462.96 1268.81 462.96 1306.79 462.96 1326.45 458.3 1341.6 449.12"/><path class="cls-2" transform="translate(-204.03 -274.39)"/></svg>