<?xml version="1.0" standalone="no"?>
<!DOCTYPE svg PUBLIC "-//W3C//DTD SVG 20010904//EN"
 "http://www.w3.org/TR/2001/REC-SVG-20010904/DTD/svg10.dtd">
<svg version="1.0" xmlns="http://www.w3.org/2000/svg"
 width="200.000000pt" height="200.000000pt" viewBox="0 0 200.000000 200.000000"
 preserveAspectRatio="xMidYMid meet">
<metadata>
Created by potrace 1.11, written by Peter Selinger 2001-2013
</metadata>
<g transform="translate(0.000000,200.000000) scale(0.100000,-0.100000)"
fill="#000000" stroke="none">
<path d="M735 1219 c-249 -142 -273 -158 -283 -189 -21 -58 5 -98 95 -145 21
-11 41 -24 45 -30 4 -5 8 -6 8 -1 0 5 8 2 18 -6 17 -15 58 -39 162 -95 46 -25
60 -28 87 -21 66 17 85 99 36 150 -15 15 -30 28 -35 28 -11 0 -148 83 -148 90
0 3 39 27 87 54 107 61 123 77 123 120 0 48 -8 65 -41 81 -43 23 -58 19 -154
-36z"/>
<path d="M1101 1250 c-11 -8 -23 -29 -27 -47 -12 -61 0 -78 92 -132 47 -28 90
-51 94 -51 21 0 20 -22 -2 -40 -13 -11 -26 -19 -30 -20 -17 0 -130 -75 -143
-94 -23 -33 -19 -81 10 -111 44 -43 73 -35 255 71 204 118 214 126 207 179 -4
29 -15 47 -39 67 -18 15 -36 28 -41 28 -4 0 -49 25 -99 55 -50 30 -92 55 -94
55 -2 0 -26 14 -54 30 -55 33 -96 36 -129 10z"/>
</g>
</svg>
